<?xml version="1.0" encoding="UTF-8"?>
<svg width="16px" height="14px" viewBox="0 0 16 14" version="1.1" xmlns="http://www.w3.org/2000/svg" xmlns:xlink="http://www.w3.org/1999/xlink">
    <!-- Generator: Sketch 54.1 (76490) - https://sketchapp.com -->
    <title>Alert</title>
    <desc>Created with Sketch.</desc>
    <defs>
        <path d="M7.00050735,5.99752612 L7.16825738,8.91419276 C7.17775507,9.07937505 7.31151204,9.20833338 7.47327827,9.20833338 L8.52668123,9.20833338 C8.68845971,9.20832962 8.82219764,9.0793622 8.83170212,8.91419276 L8.99945215,5.99752612 C9.00976465,5.81802091 8.87022759,5.66666675 8.69443126,5.66666675 L7.30550278,5.66666675 C7.12973191,5.66666675 6.99019485,5.81802091 7.00050735,5.99752612 L7.00050735,5.99752612 Z M9.06944985,10.6666667 C9.06944985,11.2707292 8.59064421,11.7604167 8.00000521,11.7604167 C7.40936622,11.7604167 6.93056058,11.2707292 6.93056058,10.6666667 C6.93056058,10.0626042 7.40936622,9.57291671 8.00000521,9.57291671 C8.59064421,9.57291671 9.06944985,10.0626042 9.06944985,10.6666667 Z M9.05867901,1.29127616 C8.58932013,0.45921888 7.41155604,0.457708464 6.94133142,1.29127616 L0.831594229,12.1253386 C0.362515442,12.9569271 0.949767861,14 1.89026803,14 L14.1095896,14 C15.0482819,14 15.6382589,12.9585156 15.1682634,12.1253386 L9.05867901,1.29127616 Z M2.02107129,12.5156771 L7.86767417,2.15125011 C7.92646816,2.04703137 8.07354226,2.04703137 8.13233626,2.15125011 L13.9789391,12.5156511 C14.0377077,12.6198177 13.9641961,12.749974 13.8466081,12.749974 L2.15340233,12.749974 C2.03583981,12.75 1.96232822,12.6198438 2.02107129,12.5156771 L2.02107129,12.5156771 Z" id="path-1"></path>
    </defs>
    <g id="Symbols" stroke="none" stroke-width="1" fill="none" fill-rule="evenodd">
        <g id="Forms/Text-Input/Validation/Alert" transform="translate(-224.000000, -38.000000)">
            <g id="Alert" transform="translate(224.000000, 38.000000)">
                <mask id="mask-2" fill="white">
                    <use xlink:href="#path-1"></use>
                </mask>
                <use id="Shape" fill="#3C3C3C" fill-rule="nonzero" xlink:href="#path-1"></use>
                <g id="Icon-Color" mask="url(#mask-2)" fill="#D45D00">
                    <g transform="translate(-0.666667, -0.666667)" id="Color">
                        <rect x="0" y="0" width="18" height="18"></rect>
                    </g>
                </g>
            </g>
        </g>
    </g>
</svg>