<?xml version="1.0" encoding="UTF-8"?>
<svg width="12px" height="12px" viewBox="0 0 12 12" version="1.1" xmlns="http://www.w3.org/2000/svg" xmlns:xlink="http://www.w3.org/1999/xlink">
    <!-- Generator: Sketch 50 (54983) - http://www.bohemiancoding.com/sketch -->
    <title>Close Icon</title>
    <desc>Created with Sketch.</desc>
    <defs></defs>
    <g id="Close-Icon" stroke="none" stroke-width="1" fill="none" fill-rule="evenodd">
        <g id="times" fill="#FFFFFF" fill-rule="nonzero">
            <path d="M6.92043916,6 L11.8727628,1.04767634 C12.0424124,0.878026771 12.0424124,0.603699804 11.8727628,0.434050233 L11.5659498,0.127237179 C11.3963002,-0.0424123928 11.1219732,-0.0424123928 10.9523237,0.127237179 L6,5.07956084 L1.04767634,0.130846744 C0.878026771,-0.0388028275 0.603699804,-0.0388028275 0.434050233,0.130846744 L0.127237179,0.437659798 C-0.0424123928,0.60730937 -0.0424123928,0.881636336 0.127237179,1.05128591 L5.07956084,6 L0.130846744,10.9523237 C-0.0388028275,11.1219732 -0.0388028275,11.3963002 0.130846744,11.5659498 L0.437659798,11.8727628 C0.60730937,12.0424124 0.881636336,12.0424124 1.05128591,11.8727628 L6,6.92043916 L10.9523237,11.8727628 C11.1219732,12.0424124 11.3963002,12.0424124 11.5659498,11.8727628 L11.8727628,11.5659498 C12.0424124,11.3963002 12.0424124,11.1219732 11.8727628,10.9523237 L6.92043916,6 Z" id="Shape"></path>
        </g>
    </g>
</svg>