<?xml version="1.0" encoding="UTF-8"?>
<svg width="23px" height="23px" viewBox="0 0 23 23" version="1.1" xmlns="http://www.w3.org/2000/svg" xmlns:xlink="http://www.w3.org/1999/xlink">
    <!-- Generator: Sketch 51.1 (57501) - http://www.bohemiancoding.com/sketch -->
    <title>link.2</title>
    <desc>Created with Sketch.</desc>
    <defs></defs>
    <g id="Page-1" stroke="none" stroke-width="1" fill="none" fill-rule="evenodd">
        <g id="link.2" fill="#000000" fill-rule="nonzero">
            <path d="M14.643423,8.3567115 C17.3221384,11.0382066 17.2853743,15.3373236 14.6595634,17.9777057 C14.6546316,17.9830858 14.6488031,17.9889142 14.643423,17.9942943 L11.6305575,21.0071598 C8.97322807,23.6644893 4.64990058,23.6641306 1.99297466,21.0071598 C-0.664354776,18.3502788 -0.664354776,14.0264581 1.99297466,11.369577 L3.65659649,9.70595517 C4.09776608,9.26478558 4.85752827,9.55800195 4.88030409,10.1814678 C4.90935673,10.9760214 5.05184016,11.7742963 5.31474854,12.5451774 C5.40378947,12.8062027 5.34016959,13.0949357 5.14514035,13.2899649 L4.55839376,13.8767115 C3.30186745,15.1332378 3.26245809,17.1792066 4.50661014,18.4480175 C5.76304678,19.7293372 7.82820468,19.7369591 9.0942807,18.470883 L12.1071462,15.4584659 C13.3710702,14.1945419 13.3657797,12.1516218 12.1071462,10.8929883 C11.9412144,10.7273704 11.7740721,10.5986959 11.6435146,10.5088031 C11.4562327,10.3801967 11.3407503,10.1706427 11.3320507,9.94362183 C11.3142963,9.4698577 11.4821559,8.98165692 11.8565224,8.60729045 L12.8004639,7.66330409 C13.0479942,7.41577388 13.4363041,7.38537622 13.7233333,7.58569591 C14.0520444,7.81522493 14.3599276,8.07322449 14.643423,8.3567115 Z M20.9621462,2.03767446 C18.3052203,-0.619296296 13.9818928,-0.619654971 11.3245634,2.03767446 L8.31169786,5.05053996 C8.30631774,5.05592008 8.30048928,5.06174854 8.2955575,5.06712865 C5.66979142,7.70751072 5.63298246,12.0066277 8.31169786,14.6881228 C8.59517655,14.971597 8.90304504,15.2295818 9.23174269,15.4590936 C9.51877193,15.6594133 9.90712671,15.6289708 10.1546121,15.3814854 L11.0985536,14.437499 C11.4729201,14.0631326 11.6407797,13.5749318 11.6230253,13.1011676 C11.6143258,12.8741468 11.4988433,12.6645928 11.3115614,12.5359864 C11.1810039,12.4460936 11.0138616,12.3174191 10.8479298,12.1518012 C9.5892963,10.8931676 9.58400585,8.85024756 10.8479298,7.58632359 L13.8607953,4.57390643 C15.1268713,3.30783041 17.1919844,3.31545224 18.4484659,4.59677193 C19.6926179,5.86558285 19.6532534,7.91155166 18.3966823,9.16807797 L17.8099357,9.75482456 C17.6149064,9.9498538 17.5512865,10.2385867 17.6403275,10.4996121 C17.9032359,11.2704932 18.0457193,12.068768 18.0747719,12.8633216 C18.0975926,13.4867875 18.8573099,13.7800039 19.2984795,13.3388343 L20.9621014,11.6752125 C23.6194756,9.01837622 23.6194756,4.69455556 20.9621462,2.03767446 Z" id="Shape"></path>
        </g>
    </g>
</svg>