<?xml version="1.0" encoding="UTF-8"?>
<svg width="32px" height="32px" viewBox="0 0 32 32" version="1.1" xmlns="http://www.w3.org/2000/svg" xmlns:xlink="http://www.w3.org/1999/xlink">
    <!-- Generator: Sketch 50 (54983) - http://www.bohemiancoding.com/sketch -->
    <title>Icon/Search</title>
    <desc>Created with Sketch.</desc>
    <defs>
        <path d="M31,29.8488785 L22.7902268,21.6386887 C24.4480134,19.5134477 25.3568275,16.9177915 25.3568275,14.1790318 C25.3568275,10.9257079 24.0887502,7.86724855 21.7885523,5.56845631 C19.4898767,3.2666193 16.4315725,2 13.1784138,2 C9.92525499,2 6.86695083,3.2666193 4.56827523,5.56845631 C2.26807733,7.86724855 1,10.9257079 1,14.1790318 C1,17.4323556 2.26807733,20.490815 4.56827523,22.7896072 C6.86695083,25.0914442 9.92525499,26.3580635 13.1784138,26.3580635 C15.9170346,26.3580635 18.512559,25.4507257 20.6376922,23.7913326 L28.8474654,32 L31,29.8488785 Z M13.1784138,23.3133056 C10.7381641,23.3133056 8.44557771,22.3633411 6.72080986,20.6384857 C4.99451971,18.9136304 4.04460344,16.6194053 4.04460344,14.1790318 C4.04460344,11.7401807 4.99451971,9.44595555 6.72080986,7.72110017 C8.44557771,5.99472242 10.7381641,5.04475794 13.1784138,5.04475794 C15.6186634,5.04475794 17.9112498,5.99472242 19.6360177,7.72110017 C21.3623078,9.44595555 22.3122241,11.7401807 22.3122241,14.1790318 C22.3122241,16.6194053 21.3623078,18.9136304 19.6360177,20.6384857 C17.9112498,22.3633411 15.6186634,23.3133056 13.1784138,23.3133056 Z" id="path-1"></path>
    </defs>
    <g id="Icon/Search" stroke="none" stroke-width="1" fill="none" fill-rule="evenodd">
        <rect id="Bounding-Box" x="-1" y="-1" width="32" height="32"></rect>
        <mask id="mask-2" fill="white">
            <use xlink:href="#path-1"></use>
        </mask>
        <g id="Mask"></g>
        <g id="Mixin/Fill/White" mask="url(#mask-2)" fill="#FFFFFF">
            <g transform="translate(1.000000, 1.000000)" id="Rectangle">
                <rect x="0" y="0" width="31" height="31"></rect>
            </g>
        </g>
    </g>
</svg>