<?xml version="1.0" encoding="UTF-8"?>
<svg width="18px" height="20px" viewBox="0 0 18 20" version="1.1" xmlns="http://www.w3.org/2000/svg" xmlns:xlink="http://www.w3.org/1999/xlink">
    <!-- Generator: Sketch 50 (54983) - http://www.bohemiancoding.com/sketch -->
    <title>User Icon Dark</title>
    <desc>Created with Sketch.</desc>
    <defs></defs>
    <g id="User-Icon-Dark" stroke="none" stroke-width="1" fill="none" fill-rule="evenodd">
        <g id="User-Icon" fill="#353535" fill-rule="nonzero">
            <path d="M6.725,2.146 C5.709,2.902 5.436,4.099 5.486,4.736 C5.55,5.515 5.708,6.529 5.708,6.529 C5.708,6.529 5.395,6.699 5.395,7.383 C5.504,9.1 6.078,8.359 6.196,9.112 C6.48,10.926 7.129,10.603 7.129,11.593 C7.129,13.242 6.449,14.013 4.326,14.927 C2.196,15.845 0,17 0,19 L0,20 L18,20 L18,19 C18,17 15.803,15.845 13.672,14.928 C11.549,14.014 10.871,13.244 10.871,11.594 C10.871,10.604 11.518,10.927 11.803,9.113 C11.922,8.36 12.495,9.101 12.606,7.384 C12.606,6.7 12.292,6.53 12.292,6.53 C12.292,6.53 12.45,5.516 12.513,4.737 C12.578,3.92 12.115,2.176 10.213,1.641 C9.88,1.301 9.655,0.76 10.679,0.217 C8.439,0.112 7.918,1.284 6.725,2.146 Z" id="Shape"></path>
        </g>
    </g>
</svg>